<svg xmlns="http://www.w3.org/2000/svg" width="32" height="32" viewBox="0 0 24 24"><path fill="currentColor" d="M4.695.395L4.578.97l5.7.552zm-2.443.851l-.04.406H6.44ZM0 2.152V21.85h19.697V2.152Zm20.197.836V20.24l1.66-17.092zm2.084.965l-1.65 17.002L24 4.301ZM9.928 7.361q.893 0 1.593.227q.7.228.7.508q0 .227-.201.586q-.203.359-.36.359q-.017 0-.226-.105a2.8 2.8 0 0 0-1.34-.315q-.743 0-1.155.307a.95.95 0 0 0-.412.797q0 .49.307.77q.305.279 1.041.507q1.645.508 2.232 1.111q.586.605.586 1.82q0 1.218-.867 2.006t-2.074.788t-2.082-.36q-.876-.359-.875-.691q0-.175.219-.526q.217-.35.392-.35q.018 0 .281.167q.264.166.752.334q.49.165 1.182.166q.692 0 1.139-.395q.445-.394.445-1.068q0-.675-.393-1.05q-.394-.377-1.568-.71q-1.172-.331-1.697-.848T7.021 9.83q0-1.05.805-1.76q.806-.708 2.102-.709m5.86 14.989l4.165.404l.04-.404zm1.126.613l3.18.642l.066-.328z"/></svg>
